# xmcd CD database file
#
# Track frame offsets:
#	183
#	17070
#	29515
#	44168
#	61318
#	72000
#	90500
#	104020
#	116480
#	133960
#	147475
#	164785
#	179295
#	192510
#	207723
#	224265
#	239998
#	253453
#	272520
#	287510
#	300570
#	317735
#	331070
#
# Disc length: 4634 seconds
#
# Revision: 4
# Processed by: cddbd v1.5.2PL0 Copyright (c) Steve Scherf et al.
# Submitted via: CDex 1.51
#
DISCID=79121817
DTITLE=Sampler - Capitol Country Music Classics 1980's
DYEAR=1991
DGENRE=Country
TTITLE0=Nothing Sure Looked Good On You_Gene Watson
TTITLE1=Something 'Bout You Baby I Like_Glen Campbell and Rita Coolidge
TTITLE2=Could I Have This Dance_Anne Murray
TTITLE3=(You Say You're) A Real Cowboy_Billy "Crash" Craddock
TTITLE4=Louisiana Saturday Night_Mel McDaniel
TTITLE5=The Sweetest Thing (I've Ever Known)_Juice Newton
TTITLE6=Baby's Got Her Blue Jeans On_Mel McDaniel
TTITLE7=Step That Step_Sawyer Brown
TTITLE8=Meet Me In Montana_Marie Osmond and Dan Seals
TTITLE9=I Tell It Like It Used To Be_T. Graham Brown
TTITLE10=Heartbeat In The Darkness_Don Williams
TTITLE11=Just Another Love_Tanya Tucker
TTITLE12=I Don't Want To Set The World On Fire_Suzy Bogguss
TTITLE13=Unconditional Love_New Grass Revival
TTITLE14=I Won't Take Less Than Your Love_Tanya Tucker, Paul Davis and Paul Overstreet
TTITLE15=I Didn't (Every Chance I Had)_Johnny Rodriguez
TTITLE16=The New Never Wore Off My Sweet Baby_Dean Dillon
TTITLE17=Addicted_Dan Seals
TTITLE18=Darlene_T. Graham Brown
TTITLE19=I Wish That I Could Fall In Love Today_Barbara Mandrell
TTITLE20=Old Cayote Town_Don Williams
TTITLE21=Much Too Young (To Feel This Damm Old)_Garth Brooks
TTITLE22=If Tomorrow Never Comes_Garth Brooks
EXTD=YEAR: 1991
EXTT0=
EXTT1=
EXTT2=
EXTT3=
EXTT4=
EXTT5=
EXTT6=
EXTT7=
EXTT8=
EXTT9=
EXTT10=
EXTT11=
EXTT12=
EXTT13=
EXTT14=
EXTT15=
EXTT16=
EXTT17=
EXTT18=
EXTT19=
EXTT20=
EXTT21=
EXTT22=
PLAYORDER=
